<svg id="Layer_1" data-name="Layer 1" xmlns="http://www.w3.org/2000/svg" viewBox="0 0 341.06 354.68"><defs><style>.cls-1{opacity:0.49;}.cls-2{fill:#333;}.cls-3{fill:#76fac7;}.cls-4{fill:#00d7dc;}.cls-5{fill:#0081cf;}.cls-6{fill:#cff;}.cls-7{fill:#3cc;}</style></defs><g class="cls-1"><path class="cls-2" d="M340.81,177.91c0-27-179.73-27.17-179.75-.14v28H340.81Z"/><path class="cls-2" d="M341.06,329.29c0,33.86-180.56,33.86-180.56,0V177.77c-.05,21.07,179.69,21.53,179.74.45,0-.31.55-.3.82-.45Z"/><path class="cls-2" d="M161.13,266.78c10,3.63,18.53,4.3,27.9,0,15.57-6.2,27.82-4.83,38.53,0,13.06,4.19,27,3.76,41.53,0,15.32-5.75,27.84-5.32,38.16,0,14.4,4.05,25.33,3.89,33.18,0l-.63,62.51c0,33.82-178,33.82-178,0Z"/></g><path class="cls-3" d="M158.56,197.28V169.77c0-12.93,44.8-19.7,89-19.7,23.58,0,45.56,1.8,61.91,5.08,18.2,3.65,27.81,8.75,27.81,14.76v27.37Z"/><path class="cls-4" d="M247.59,150.57c23.55,0,45.5,1.8,61.81,5.07,17.68,3.54,27.41,8.61,27.41,14.27v26.87H159.06v-27c0-5.63,9.65-10.66,27.16-14.18,16.16-3.24,38-5,61.37-5m0-1c-44.82,0-89.52,6.72-89.53,20.2v28H337.81V169.91c0-13.55-45.16-20.34-90.22-20.34Z"/><path class="cls-4" d="M247.78,346.18c-44.61,0-89.78-8.55-89.78-24.89V172.54c7.07,9.43,50.35,13.76,90.8,13.76,42.64,0,85.66-4.61,88.76-14.89V321.29C337.56,337.63,292.4,346.18,247.78,346.18Z"/><path class="cls-4" d="M337.06,173.4V321.29c0,16-44.91,24.39-89.28,24.39s-89.28-8.38-89.28-24.39V173.86C169,184,218.3,186.8,248.8,186.8c23.32,0,45-1.38,61-3.89,15-2.35,24.15-5.54,27.23-9.51m1-3.63c-.27.15-.82.14-.82.45,0,10.43-44,15.58-88.44,15.58-45.39,0-91.27-5.38-91.3-16V321.29c0,16.93,45.14,25.39,90.28,25.39s90.28-8.46,90.28-25.39V169.77Zm-180.56,0h0Z"/><path class="cls-5" d="M158.13,258.78c10,3.63,18.53,4.3,27.9,0,15.57-6.2,27.82-4.83,38.53,0,13.06,4.19,27,3.76,41.53,0,15.32-5.75,27.84-5.32,38.16,0,14.4,4.05,25.33,3.89,33.18,0l-.63,62.51c0,33.82-178,33.82-178,0Z"/><g class="cls-1"><rect class="cls-2" x="8.88" y="59.92" width="233.99" height="174.27" rx="7.69" transform="translate(-58.12 207.19) rotate(-67.54)"/><rect class="cls-2" x="182.46" y="116.81" width="33.56" height="29.14" transform="translate(1.7 265.31) rotate(-67.54)"/><rect class="cls-2" x="143.69" y="100.78" width="33.56" height="29.14" transform="translate(-7.44 219.57) rotate(-67.54)"/><rect class="cls-2" x="104.91" y="84.75" width="33.56" height="29.14" transform="translate(-16.59 173.83) rotate(-67.54)"/><rect class="cls-2" x="66.14" y="68.71" width="33.56" height="29.14" transform="translate(-25.73 128.09) rotate(-67.54)"/><rect class="cls-2" x="141.48" y="-11.73" width="33.56" height="155.02" rx="9.82" transform="translate(37 186.9) rotate(-67.54)"/><rect class="cls-2" x="165.28" y="158.37" width="33.56" height="29.14" transform="translate(-47.32 275.1) rotate(-67.54)"/><rect class="cls-2" x="126.51" y="142.34" width="33.56" height="29.14" transform="translate(-56.46 229.36) rotate(-67.54)"/><rect class="cls-2" x="87.73" y="126.3" width="33.56" height="29.14" transform="translate(-65.61 183.62) rotate(-67.54)"/><rect class="cls-2" x="48.95" y="110.27" width="33.56" height="29.14" transform="translate(-74.75 137.88) rotate(-67.54)"/><rect class="cls-2" x="109.32" y="183.89" width="33.56" height="29.14" transform="translate(-105.48 239.16) rotate(-67.54)"/><rect class="cls-2" x="70.55" y="167.86" width="33.56" height="29.14" transform="translate(-114.62 193.42) rotate(-67.54)"/><rect class="cls-2" x="31.77" y="151.82" width="33.56" height="29.14" transform="translate(-123.77 147.68) rotate(-67.54)"/><rect class="cls-2" x="117.03" y="220.7" width="78.52" height="29.14" transform="translate(-120.85 289.8) rotate(-67.54)"/><rect class="cls-2" x="92.14" y="225.45" width="33.56" height="29.14" transform="translate(-154.5 248.96) rotate(-67.54)"/><rect class="cls-2" x="33.98" y="180.42" width="33.56" height="71.1" transform="translate(-168.21 180.35) rotate(-67.54)"/></g><rect class="cls-6" x="5.88" y="51.92" width="233.99" height="174.27" rx="7.69" transform="translate(-52.58 199.47) rotate(-67.54)"/><rect class="cls-7" x="179.46" y="108.81" width="33.56" height="29.14" transform="translate(7.24 257.59) rotate(-67.54)"/><rect class="cls-7" x="140.69" y="92.78" width="33.56" height="29.14" transform="translate(-1.9 211.85) rotate(-67.54)"/><rect class="cls-7" x="101.91" y="76.75" width="33.56" height="29.14" transform="translate(-11.05 166.11) rotate(-67.54)"/><rect class="cls-7" x="63.14" y="60.71" width="33.56" height="29.14" transform="translate(-20.19 120.37) rotate(-67.54)"/><rect class="cls-3" x="138.48" y="-19.73" width="33.56" height="155.02" rx="9.82" transform="translate(42.54 179.18) rotate(-67.54)"/><rect class="cls-7" x="162.28" y="150.37" width="33.56" height="29.14" transform="translate(-41.78 267.39) rotate(-67.54)"/><rect class="cls-7" x="123.51" y="134.34" width="33.56" height="29.14" transform="translate(-50.92 221.65) rotate(-67.54)"/><rect class="cls-7" x="84.73" y="118.3" width="33.56" height="29.14" transform="translate(-60.07 175.91) rotate(-67.54)"/><rect class="cls-7" x="45.95" y="102.27" width="33.56" height="29.14" transform="translate(-69.21 130.17) rotate(-67.54)"/><rect class="cls-7" x="106.32" y="175.89" width="33.56" height="29.14" transform="translate(-99.94 231.45) rotate(-67.54)"/><rect class="cls-7" x="67.55" y="159.86" width="33.56" height="29.14" transform="translate(-109.09 185.71) rotate(-67.54)"/><rect class="cls-7" x="28.77" y="143.82" width="33.56" height="29.14" transform="translate(-118.23 139.97) rotate(-67.54)"/><rect class="cls-5" x="114.03" y="212.7" width="78.52" height="29.14" transform="translate(-115.31 282.09) rotate(-67.54)"/><rect class="cls-7" x="89.14" y="217.45" width="33.56" height="29.14" transform="translate(-148.96 241.25) rotate(-67.54)"/><rect class="cls-7" x="30.98" y="172.42" width="33.56" height="71.1" transform="translate(-162.68 172.64) rotate(-67.54)"/></svg>