<svg id="Layer_1" data-name="Layer 1" xmlns="http://www.w3.org/2000/svg" viewBox="0 0 371.85 368"><defs><style>.cls-1{opacity:0.31;}.cls-2{fill:#0d0f0e;}.cls-3{opacity:0.25;}.cls-4{fill:#0081cf;}.cls-5,.cls-7{fill:#9cc;}.cls-6{fill:#366;}.cls-7,.cls-8,.cls-9{stroke:#76fac7;stroke-miterlimit:10;}.cls-8,.cls-9{fill:none;}.cls-8{stroke-width:8px;}.cls-10{fill:#030504;}.cls-11{fill:#00d7dc;}.cls-12{fill:#f1ffff;}</style></defs><g class="cls-1"><rect class="cls-2" x="175.65" y="2" width="45.18" height="16.53" rx="2.81"/><rect class="cls-2" x="143.14" y="60.4" width="110.19" height="31.96"/><polygon class="cls-2" points="225.79 14.12 170.69 14.12 143.14 60.4 253.33 60.4 225.79 14.12"/><polygon class="cls-2" points="311.19 11.37 311.19 89.6 252.23 89.6 218.03 21.28 311.19 11.37"/><polygon class="cls-2" points="85.29 11.37 85.29 89.6 144.24 89.6 178.44 21.28 85.29 11.37"/><rect class="cls-2" x="164.08" y="92.36" width="68.32" height="31.96"/><path class="cls-2" d="M371.85,214.67H143.29c-20.77,0-37.62-19.17-37.62-42.83v-4.69c0-23.66,16.85-42.83,37.62-42.83H371.85"/><path class="cls-2" d="M14.21,297.32V170.05c0-18,0-32.51,51.24-32.51h58.41a32.5,32.5,0,0,1,32.5,32.51h0a32.5,32.5,0,0,1-32.5,32.5h-38q-16.53,0-16.53,23.14v71.63Z"/><rect class="cls-2" x="6.5" y="227.9" width="71.63" height="34.16" rx="10.41"/><path class="cls-2" d="M253.89,123.76c8.53,32.29,7.95,62.26,0,90.36"/><path class="cls-2" d="M147,123.76a266.17,266.17,0,0,0,0,90.36"/><path class="cls-2" d="M142.59,168.94a451.86,451.86,0,0,0,117.91,0"/><path class="cls-2" d="M14.76,269.22c0,10.86,55.1,10.86,55.1,0"/><path class="cls-2" d="M14.76,276.93c0,10.86,55.1,10.86,55.1,0"/><path class="cls-2" d="M14.76,284.65c0,10.85,55.1,10.85,55.1,0"/><polygon class="cls-2" points="30.08 212.12 41.24 188.43 56.28 183.49 69.1 160.22 87.4 157.11 68.66 180.2 64.09 194.34 49.14 195.01 30.08 212.12"/><g class="cls-3"><rect class="cls-2" x="47.68" y="140.51" width="31.6" height="64.06" rx="13.32" transform="translate(-74.5 51.05) rotate(-28.44)"/><rect class="cls-2" x="47.88" y="165.23" width="31.6" height="15.37" transform="translate(-74.66 51.19) rotate(-28.44)"/></g><rect class="cls-2" x="44.68" y="140.51" width="31.6" height="64.06" rx="13.32" transform="translate(-74.87 49.62) rotate(-28.44)"/><rect class="cls-2" x="44.88" y="165.23" width="31.6" height="15.37" transform="translate(-75.02 49.76) rotate(-28.44)"/></g><path class="cls-4" d="M36.21,319c-8.47,10.74-17.46,21.49-16.61,32,0,22.59,34.33,22.59,34.33,0C53.84,340.75,44,329.83,36.21,319Z"/><rect class="cls-5" x="169.65" width="45.18" height="16.53" rx="2.81"/><rect class="cls-6" x="137.14" y="58.4" width="110.19" height="31.96"/><polygon class="cls-6" points="219.79 12.12 164.69 12.12 137.14 58.4 247.33 58.4 219.79 12.12"/><polygon class="cls-6" points="305.19 9.37 305.19 87.6 246.23 87.6 212.03 19.28 305.19 9.37"/><polygon class="cls-6" points="79.29 9.37 79.29 87.6 138.24 87.6 172.44 19.28 79.29 9.37"/><rect class="cls-5" x="158.08" y="90.36" width="68.32" height="31.96"/><path class="cls-5" d="M371.85,212.67H137.29c-20.77,0-37.62-19.17-37.62-42.83v-4.69c0-23.66,16.85-42.83,37.62-42.83H371.85"/><path class="cls-5" d="M8.21,295.32V168.05c0-18,0-32.51,51.24-32.51h58.41a32.5,32.5,0,0,1,32.5,32.51h0a32.5,32.5,0,0,1-32.5,32.5h-38q-16.53,0-16.53,23.14v71.63Z"/><rect class="cls-7" x="0.5" y="225.9" width="71.63" height="34.16" rx="10.41"/><path class="cls-8" d="M247.89,121.76c8.53,32.29,8,62.26,0,90.36"/><path class="cls-8" d="M141,121.76a266.17,266.17,0,0,0,0,90.36"/><path class="cls-8" d="M136.59,166.94a451.86,451.86,0,0,0,117.91,0"/><path class="cls-9" d="M8.76,267.22c0,10.86,55.1,10.86,55.1,0"/><path class="cls-9" d="M8.76,274.93c0,10.86,55.1,10.86,55.1,0"/><path class="cls-9" d="M8.76,282.65c0,10.85,55.1,10.85,55.1,0"/><polygon points="24.08 210.12 35.24 186.43 50.28 181.49 63.1 158.22 81.4 155.11 62.66 178.2 58.09 192.34 43.14 193.01 24.08 210.12"/><g class="cls-3"><rect class="cls-10" x="41.68" y="138.51" width="31.6" height="64.06" rx="13.32" transform="translate(-74.28 47.95) rotate(-28.44)"/><rect class="cls-10" x="41.88" y="163.23" width="31.6" height="15.37" transform="translate(-74.43 48.09) rotate(-28.44)"/></g><rect class="cls-11" x="38.68" y="138.51" width="31.6" height="64.06" rx="13.32" transform="translate(-74.64 46.52) rotate(-28.44)"/><rect class="cls-12" x="38.88" y="163.23" width="31.6" height="15.37" transform="translate(-74.79 46.66) rotate(-28.44)"/><path class="cls-4" d="M8.21,295.32h55.1c.11,2.36-3.4,3.21-9.38,3-5.13-.91-10.2-1.67-14.29,0-8.11.89-16.52,2-20.09,0C17.6,296.78,13.15,296,8.21,295.32Z"/></svg>