<svg id="Layer_1" data-name="Layer 1" xmlns="http://www.w3.org/2000/svg" viewBox="0 0 317 371.5"><defs><style>.cls-1{opacity:0.25;}.cls-2{fill:#050707;}.cls-3{fill:#699;}.cls-4{fill:#76fac7;}.cls-5{fill:#0081cf;}.cls-6{fill:#366;}.cls-7{fill:#00d7dc;}</style></defs><g class="cls-1"><rect class="cls-2" x="14" y="8" width="303" height="363.5" rx="13.56"/><rect class="cls-2" x="27.5" y="22.1" width="265" height="71.03" rx="8.46"/><rect class="cls-2" x="36.5" y="31.5" width="48" height="50.14" rx="11.48"/><rect class="cls-2" x="105.31" y="31.5" width="122.91" height="12.53"/><rect class="cls-2" x="105.31" y="49.26" width="166.89" height="8.36"/><rect class="cls-2" x="105.31" y="73.28" width="166.89" height="8.36"/><rect class="cls-2" x="105.31" y="61.27" width="166.89" height="8.36"/><rect class="cls-2" x="27.5" y="278.01" width="265" height="71.03" rx="8.46"/><rect class="cls-2" x="36.5" y="287.41" width="48" height="50.14" rx="11.48"/><rect class="cls-2" x="105.31" y="287.41" width="122.91" height="12.53"/><rect class="cls-2" x="105.31" y="305.17" width="166.89" height="8.36"/><rect class="cls-2" x="105.31" y="329.2" width="166.89" height="8.36"/><rect class="cls-2" x="105.31" y="317.18" width="166.89" height="8.36"/><rect class="cls-2" x="27.5" y="105.66" width="265" height="159.81" rx="8.46"/><rect class="cls-2" x="36.5" y="115.07" width="48" height="50.14" rx="11.48"/><rect class="cls-2" x="105.31" y="115.07" width="122.91" height="12.53"/><rect class="cls-2" x="105.31" y="140.13" width="166.89" height="8.36"/><rect class="cls-2" x="105.31" y="164.16" width="166.89" height="8.36"/><rect class="cls-2" x="36.5" y="176.69" width="235.81" height="8.36"/><rect class="cls-2" x="36.45" y="189.23" width="235.81" height="8.36"/><rect class="cls-2" x="36.45" y="201.76" width="235.81" height="8.36"/><rect class="cls-2" x="36.5" y="214.3" width="235.81" height="8.36"/><rect class="cls-2" x="36.45" y="226.83" width="235.81" height="8.36"/><rect class="cls-2" x="36.45" y="239.37" width="235.81" height="8.36"/><rect class="cls-2" x="105.31" y="152.15" width="166.89" height="8.36"/></g><rect class="cls-3" width="303" height="363.5" rx="13.56"/><rect class="cls-4" x="13.5" y="14.1" width="265" height="71.03" rx="8.46"/><rect class="cls-5" x="22.5" y="23.5" width="48" height="50.14" rx="11.48"/><rect class="cls-6" x="91.31" y="23.5" width="122.91" height="12.53"/><rect class="cls-7" x="91.31" y="41.26" width="166.89" height="8.36"/><rect class="cls-7" x="91.31" y="65.28" width="166.89" height="8.36"/><rect class="cls-7" x="91.31" y="53.27" width="166.89" height="8.36"/><rect class="cls-4" x="13.5" y="270.01" width="265" height="71.03" rx="8.46"/><rect class="cls-5" x="22.5" y="279.41" width="48" height="50.14" rx="11.48"/><rect class="cls-6" x="91.31" y="279.41" width="122.91" height="12.53"/><rect class="cls-7" x="91.31" y="297.17" width="166.89" height="8.36"/><rect class="cls-7" x="91.31" y="321.2" width="166.89" height="8.36"/><rect class="cls-7" x="91.31" y="309.18" width="166.89" height="8.36"/><rect class="cls-4" x="13.5" y="97.66" width="265" height="159.81" rx="8.46"/><rect class="cls-5" x="22.5" y="107.07" width="48" height="50.14" rx="11.48"/><rect class="cls-6" x="91.31" y="107.07" width="122.91" height="12.53"/><rect class="cls-7" x="91.31" y="132.13" width="166.89" height="8.36"/><rect class="cls-7" x="91.31" y="156.16" width="166.89" height="8.36"/><rect class="cls-7" x="22.5" y="168.69" width="235.81" height="8.36"/><rect class="cls-7" x="22.45" y="181.23" width="235.81" height="8.36"/><rect class="cls-7" x="22.45" y="193.76" width="235.81" height="8.36"/><rect class="cls-7" x="22.5" y="206.3" width="235.81" height="8.36"/><rect class="cls-7" x="22.45" y="218.83" width="235.81" height="8.36"/><rect class="cls-7" x="22.45" y="231.37" width="235.81" height="8.36"/><rect class="cls-7" x="91.31" y="144.15" width="166.89" height="8.36"/></svg>