<svg width="40" height="40" viewBox="0 0 40 40" fill="none" xmlns="http://www.w3.org/2000/svg">
<g clip-path="url(#clip0_6_470)">
<path d="M38 0.0666809H1.99998C0.932233 0.0666809 0.0666504 0.932264 0.0666504 2.00001V38C0.0666504 39.0678 0.932233 39.9333 1.99998 39.9333H38C39.0677 39.9333 39.9333 39.0678 39.9333 38V2.00001C39.9333 0.932264 39.0677 0.0666809 38 0.0666809Z" fill="#336666"/>
<path d="M38 0.133333C38.4951 0.133333 38.9699 0.329999 39.3199 0.680067C39.67 1.03014 39.8667 1.50493 39.8667 2V38C39.8667 38.4951 39.67 38.9699 39.3199 39.3199C38.9699 39.67 38.4951 39.8667 38 39.8667H2C1.50493 39.8667 1.03014 39.67 0.680067 39.3199C0.329999 38.9699 0.133333 38.4951 0.133333 38V2C0.133333 1.50493 0.329999 1.03014 0.680067 0.680067C1.03014 0.329999 1.50493 0.133333 2 0.133333H38ZM38 0H2C1.46957 0 0.960859 0.210714 0.585786 0.585786C0.210714 0.960859 0 1.46957 0 2V38C0 38.5304 0.210714 39.0391 0.585786 39.4142C0.960859 39.7893 1.46957 40 2 40H38C38.5304 40 39.0391 39.7893 39.4142 39.4142C39.7893 39.0391 40 38.5304 40 38V2C40 1.46957 39.7893 0.960859 39.4142 0.585786C39.0391 0.210714 38.5304 0 38 0Z" fill="white"/>
<path d="M10.052 12.1587C12.3716 12.1587 14.252 10.2783 14.252 7.95867C14.252 5.63907 12.3716 3.75867 10.052 3.75867C7.73239 3.75867 5.85199 5.63907 5.85199 7.95867C5.85199 10.2783 7.73239 12.1587 10.052 12.1587Z" fill="#0081CF"/>
<path d="M30.452 20.5587C32.7716 20.5587 34.652 18.6783 34.652 16.3587C34.652 14.0391 32.7716 12.1587 30.452 12.1587C28.1324 12.1587 26.252 14.0391 26.252 16.3587C26.252 18.6783 28.1324 20.5587 30.452 20.5587Z" fill="#00D7DC"/>
<path d="M14.052 11.0253C12.5467 13.6627 9.33333 13.704 7.29066 11.9173C5.89733 10.696 4.02533 10.4253 3.51866 9.82535C3.284 10.4253 5.548 12.9587 5.91866 14.092C10.46 27.9893 11.9693 36.4133 20.7187 36.2253C29.6293 36.6373 29.2693 28.4787 34.3187 22.7587C35.348 21.5933 37.252 20.0427 36.1853 18.7587C36.2773 18.892 34.6747 19 33.3693 20.1987C31.1813 22.2107 27.1867 22.756 26.1853 20.492C25.252 18.3947 24.5093 28.3187 20.7187 27.8253C16.5027 28.9827 15.244 8.93335 14.052 11.0253Z" fill="#76FAC7"/>
</g>
<defs>
<clipPath id="clip0_6_470">
<rect width="40" height="40" fill="white"/>
</clipPath>
</defs>
</svg>
